<?xml version="1.0" encoding="utf-8"?>
<!-- Generator: Adobe Illustrator 19.0.0, SVG Export Plug-In . SVG Version: 6.00 Build 0)  -->
<svg version="1.1" id="Layer_1" xmlns="http://www.w3.org/2000/svg" xmlns:xlink="http://www.w3.org/1999/xlink" x="0px" y="0px"
	 viewBox="-353 278.3 134 40" style="enable-background:new -353 278.3 134 40;" xml:space="preserve">
<style type="text/css">
	.st0{fill:#FFFFFF;}
	.st1{fill:#FF5C62;}
</style>
<g>
	<path class="st0" d="M-298,295.3c0-1.6,0.3-2.9,0.9-3.8c0.6-0.9,1.4-1.3,2.4-1.3c1,0,1.9,0.4,2.5,1.3c0.6,0.9,0.9,2.1,0.9,3.8
		s-0.3,2.9-0.9,3.8c-0.6,0.9-1.4,1.3-2.5,1.3c-1,0-1.9-0.4-2.4-1.3C-297.7,298.2-298,296.9-298,295.3z M-292.7,295.3
		c0-0.5,0-1-0.1-1.5c0-0.4-0.2-0.8-0.3-1.2c-0.1-0.3-0.3-0.6-0.6-0.8c-0.3-0.2-0.6-0.3-0.9-0.3c-0.4,0-0.7,0.1-0.9,0.3
		c-0.3,0.2-0.5,0.5-0.6,0.8c-0.1,0.4-0.3,0.8-0.3,1.2c-0.1,0.5-0.1,1-0.1,1.5c0,0.5,0,1,0.1,1.5c0.1,0.5,0.2,0.9,0.3,1.2
		c0.1,0.4,0.3,0.6,0.6,0.8c0.3,0.2,0.6,0.3,0.9,0.3c0.4,0,0.7-0.1,0.9-0.3c0.2-0.2,0.4-0.5,0.6-0.8c0.2-0.4,0.3-0.8,0.3-1.2
		C-292.8,296.3-292.7,295.8-292.7,295.3z M-290,295.3c0-1.6,0.3-2.9,0.9-3.8c0.6-0.9,1.4-1.3,2.5-1.3c1,0,1.9,0.4,2.4,1.3
		c0.6,0.9,0.9,2.1,0.9,3.8s-0.3,2.9-0.9,3.8c-0.6,0.9-1.4,1.3-2.4,1.3c-1,0-1.9-0.4-2.5-1.3C-289.8,298.2-290,296.9-290,295.3z
		 M-284.8,295.3c0-0.5,0-1-0.1-1.5c-0.1-0.4-0.2-0.8-0.3-1.2c-0.1-0.3-0.3-0.6-0.6-0.8c-0.3-0.2-0.6-0.3-0.9-0.3s-0.7,0.1-0.9,0.3
		c-0.2,0.2-0.4,0.5-0.6,0.8c-0.1,0.4-0.3,0.8-0.3,1.2c-0.1,0.5-0.1,1-0.1,1.5c0,0.5,0,1,0.1,1.5c0.1,0.5,0.2,0.9,0.3,1.2
		c0.1,0.4,0.3,0.6,0.6,0.8c0.3,0.2,0.6,0.3,0.9,0.3s0.7-0.1,0.9-0.3c0.3-0.2,0.5-0.5,0.6-0.8c0.2-0.4,0.3-0.8,0.3-1.2
		C-284.8,296.3-284.8,295.8-284.8,295.3z M-282.1,295.3c0-1.6,0.3-2.9,0.9-3.8c0.6-0.9,1.4-1.3,2.5-1.3c1,0,1.9,0.4,2.4,1.3
		c0.6,0.9,0.9,2.1,0.9,3.8s-0.3,2.9-0.9,3.8c-0.6,0.9-1.4,1.3-2.5,1.3c-1,0-1.9-0.4-2.5-1.3C-281.8,298.2-282.1,296.9-282.1,295.3
		L-282.1,295.3z M-276.8,295.3c0-0.5,0-1-0.1-1.5c0-0.4-0.2-0.8-0.3-1.2c-0.1-0.3-0.3-0.6-0.6-0.8c-0.2-0.2-0.6-0.3-0.9-0.3
		c-0.4,0-0.7,0.1-0.9,0.3c-0.2,0.2-0.4,0.5-0.6,0.8c-0.1,0.4-0.3,0.8-0.3,1.2c-0.1,0.5-0.1,1-0.1,1.5c0,0.5,0,1,0.1,1.5
		c0.1,0.5,0.2,0.9,0.3,1.2c0.1,0.4,0.3,0.6,0.6,0.8c0.2,0.2,0.6,0.3,0.9,0.3c0.4,0,0.7-0.1,0.9-0.3c0.3-0.2,0.5-0.5,0.6-0.8
		c0.2-0.4,0.3-0.8,0.3-1.2C-276.9,296.3-276.8,295.8-276.8,295.3z M-267.6,300.1c-0.3-0.8-0.6-1.5-0.9-2.3c-0.3-0.9-0.6-1.8-0.8-2.7
		c-0.2,0.9-0.5,1.8-0.8,2.7c-0.3,0.8-0.5,1.5-0.8,2.3h-1.2c-0.5-1.1-0.9-2.2-1.3-3.3c-0.4-1.3-0.8-2.6-1.2-4h1.4
		c0.1,0.4,0.2,0.9,0.3,1.4c0.1,0.5,0.3,1,0.4,1.5c0.1,0.5,0.3,1,0.5,1.5c0.2,0.5,0.3,0.9,0.5,1.2c0.2-0.4,0.3-0.9,0.5-1.4
		c0.2-0.5,0.3-1,0.5-1.5c0.1-0.5,0.3-1,0.4-1.5c0.1-0.4,0.2-0.9,0.3-1.4h1.1c0.1,0.4,0.2,0.9,0.3,1.4c0.3,1,0.5,2,0.9,3
		c0.2,0.5,0.3,1,0.5,1.4c0.1-0.4,0.3-0.8,0.5-1.2c0.5-1.5,0.9-3,1.2-4.5h1.4c-0.3,1.3-0.7,2.7-1.2,4c-0.4,1.1-0.8,2.2-1.3,3.3
		C-266.4,300.1-267.6,300.1-267.6,300.1z M-263.1,296.5c0-0.6,0.1-1.2,0.3-1.7c0.2-0.5,0.4-0.9,0.8-1.2c0.3-0.3,0.7-0.6,1.1-0.7
		c0.4-0.2,0.8-0.2,1.3-0.2c1,0,1.8,0.3,2.3,0.9c0.5,0.6,0.8,1.5,0.8,2.8v0.2c0,0.1,0,0.2,0,0.2h-5.1c0.1,0.8,0.3,1.3,0.7,1.7
		c0.4,0.4,1,0.6,1.8,0.6c0.5,0,0.9,0,1.2-0.1c0.2-0.1,0.5-0.1,0.7-0.2l0.2,1.1c-0.2,0.1-0.4,0.2-0.9,0.3c-0.4,0.1-0.9,0.1-1.4,0.1
		c-0.7,0-1.2-0.1-1.7-0.3c-0.4-0.2-0.8-0.4-1.2-0.8c-0.3-0.3-0.5-0.8-0.7-1.2C-263.1,297.5-263.1,297-263.1,296.5z M-258,295.8
		c0-0.6-0.1-1.1-0.5-1.5c-0.3-0.4-0.7-0.6-1.3-0.6c-0.5,0-1.1,0.2-1.4,0.6c-0.2,0.2-0.3,0.4-0.4,0.6c-0.1,0.2-0.2,0.5-0.2,0.7H-258z
		 M-253.5,293.2c0.2-0.1,0.4-0.2,0.7-0.3c0.3-0.1,0.7-0.2,1.1-0.2c0.5,0,1,0.1,1.4,0.3c0.4,0.2,0.8,0.5,1.1,0.8
		c0.3,0.3,0.5,0.7,0.7,1.2c0.1,0.5,0.2,1,0.2,1.5c0,0.6-0.1,1.1-0.3,1.6c-0.2,0.4-0.4,0.9-0.8,1.2c-0.3,0.3-0.7,0.6-1.2,0.8
		c-0.5,0.2-1,0.3-1.6,0.3c-0.6,0-1.1,0-1.7-0.1c-0.5-0.1-0.9-0.2-1.2-0.3v-10.4l1.3-0.2L-253.5,293.2L-253.5,293.2z M-253.5,299
		c0.1,0,0.3,0.1,0.6,0.1c0.3,0,0.6,0.1,0.9,0c0.7,0,1.3-0.2,1.7-0.7c0.4-0.5,0.6-1.1,0.6-2c0-0.4,0-0.7-0.1-1
		c-0.1-0.3-0.2-0.6-0.4-0.8c-0.2-0.2-0.4-0.4-0.7-0.6c-0.3-0.1-0.6-0.2-1-0.2c-0.4,0-0.7,0.1-1,0.2c-0.3,0.1-0.5,0.2-0.7,0.4
		C-253.5,294.4-253.5,299-253.5,299z M-246.5,300.1v-10.6l1.3-0.2v3.7c0.5-0.2,1.1-0.3,1.6-0.3c0.6,0,1.1,0.1,1.5,0.2
		c0.4,0.2,0.7,0.4,0.9,0.7c0.2,0.3,0.4,0.6,0.5,1.1c0.1,0.4,0.1,0.9,0.1,1.4v4.1h-1.3v-3.8c0-0.4,0-0.8-0.1-1.1
		c-0.1-0.3-0.2-0.6-0.3-0.8c-0.1-0.2-0.3-0.3-0.6-0.4c-0.2-0.1-0.5-0.1-0.9-0.1c-0.1,0-0.3,0-0.4,0c-0.2,0-0.3,0-0.4,0.1
		c-0.1,0-0.3,0-0.4,0.1c-0.1,0-0.2,0-0.2,0.1v6.1C-245.2,300.1-246.5,300.1-246.5,300.1z M-231.9,296.5c0,0.6-0.1,1.1-0.3,1.6
		c-0.2,0.4-0.4,0.9-0.7,1.2c-0.3,0.3-0.7,0.6-1.1,0.8c-0.4,0.2-0.9,0.3-1.4,0.3c-0.5,0-1-0.1-1.4-0.3c-0.4-0.2-0.8-0.4-1.1-0.8
		c-0.3-0.3-0.6-0.8-0.7-1.2c-0.2-0.5-0.3-1-0.3-1.6c0-0.6,0.1-1.1,0.3-1.6c0.2-0.5,0.4-0.9,0.7-1.2c0.3-0.3,0.7-0.6,1.1-0.8
		c0.4-0.2,0.9-0.3,1.4-0.3c0.5,0,1,0.1,1.4,0.3c0.4,0.2,0.8,0.4,1.1,0.8c0.3,0.3,0.6,0.7,0.7,1.2
		C-232,295.4-231.9,295.9-231.9,296.5L-231.9,296.5z M-233.3,296.5c0-0.8-0.2-1.5-0.6-2c-0.4-0.5-0.9-0.7-1.5-0.7
		c-0.7,0-1.2,0.2-1.5,0.7c-0.4,0.5-0.6,1.1-0.6,2c0,0.8,0.2,1.5,0.6,2c0.4,0.5,0.9,0.7,1.5,0.7c0.7,0,1.2-0.2,1.5-0.7
		C-233.4,298-233.3,297.3-233.3,296.5z M-228.4,299.2c0.5,0,0.9-0.1,1.2-0.2c0.3-0.1,0.4-0.4,0.4-0.7c0-0.3-0.1-0.6-0.4-0.8
		c-0.3-0.2-0.7-0.4-1.3-0.6c-0.3-0.1-0.6-0.2-0.8-0.3c-0.2-0.1-0.5-0.2-0.7-0.4c-0.2-0.2-0.3-0.4-0.5-0.6c-0.1-0.2-0.2-0.5-0.2-0.8
		c0-0.6,0.2-1.2,0.7-1.5c0.5-0.4,1.2-0.6,2-0.6c0.2,0,0.4,0,0.6,0c0.2,0,0.4,0.1,0.6,0.1c0.2,0,0.3,0.1,0.5,0.1
		c0.1,0,0.2,0.1,0.3,0.1l-0.2,1.1c-0.2-0.1-0.4-0.2-0.7-0.2c-0.4-0.1-0.7-0.1-1.1-0.1c-0.4,0-0.7,0.1-1,0.2
		c-0.3,0.1-0.4,0.4-0.4,0.7c0,0.2,0,0.3,0.1,0.4c0.1,0.1,0.2,0.2,0.3,0.3c0.1,0.1,0.3,0.2,0.5,0.3c0.2,0.1,0.4,0.2,0.7,0.3
		c0.4,0.1,0.7,0.3,0.9,0.4c0.3,0.1,0.5,0.3,0.7,0.4c0.2,0.2,0.3,0.4,0.5,0.6c0.1,0.2,0.2,0.5,0.2,0.9c0,0.7-0.3,1.2-0.8,1.5
		c-0.5,0.3-1.2,0.5-2.2,0.5c-0.7,0-1.2-0.1-1.6-0.2c-0.3-0.1-0.5-0.2-0.8-0.2l0.2-1.1c0.2,0.1,0.4,0.1,0.7,0.3
		C-229.4,299.2-229,299.2-228.4,299.2z M-222.6,292.9h2.8v1.1h-2.8v3.4c0,0.4,0,0.7,0.1,0.9c0.1,0.2,0.1,0.4,0.3,0.6
		c0.1,0.1,0.3,0.2,0.4,0.3c0.2,0.1,0.4,0.1,0.6,0.1c0.4,0,0.7,0,1-0.1c0.2-0.1,0.4-0.2,0.5-0.2l0.3,1.1c-0.2,0.1-0.5,0.2-0.7,0.2
		c-0.4,0.1-0.8,0.2-1.1,0.1c-0.5,0-0.9-0.1-1.3-0.2c-0.3-0.1-0.6-0.3-0.8-0.6c-0.2-0.3-0.4-0.6-0.4-0.9c-0.1-0.4-0.1-0.9-0.1-1.3
		v-6.5l1.3-0.2L-222.6,292.9L-222.6,292.9z M-296.3,304.3c0.6,0,1,0.1,1.3,0.3c0.3,0.2,0.5,0.5,0.5,1c0,0.5-0.2,0.8-0.5,1
		c-0.3,0.2-0.8,0.3-1.3,0.3h-0.3v1.3h-0.9v-3.8c0.2,0,0.4-0.1,0.6-0.1C-296.7,304.3-296.5,304.3-296.3,304.3z M-296.3,305.1
		c-0.1,0-0.1,0-0.2,0c-0.1,0-0.1,0-0.2,0v1.1h0.3c0.3,0,0.5,0,0.7-0.1c0.2-0.1,0.2-0.2,0.2-0.5c0-0.1,0-0.2-0.1-0.3
		c0-0.1-0.1-0.1-0.2-0.2c-0.1,0-0.2-0.1-0.3-0.1C-296,305.1-296.2,305.1-296.3,305.1z M-292.7,306.3c0,0.2,0,0.4,0.1,0.5
		c0,0.1,0.1,0.3,0.2,0.4c0.1,0.1,0.2,0.2,0.3,0.3c0.1,0.1,0.3,0.1,0.4,0.1c0.2,0,0.3,0,0.4-0.1c0.1-0.1,0.2-0.1,0.3-0.3
		c0.1-0.1,0.2-0.2,0.2-0.4c0-0.2,0.1-0.3,0.1-0.5c0-0.2,0-0.3-0.1-0.5c0-0.1-0.1-0.3-0.2-0.4c-0.1-0.1-0.2-0.2-0.3-0.3
		c-0.1-0.1-0.3-0.1-0.4-0.1c-0.3,0-0.6,0.1-0.8,0.3c-0.1,0.1-0.2,0.2-0.2,0.4C-292.7,305.9-292.7,306.1-292.7,306.3z M-289.7,306.3
		c0,0.3,0,0.6-0.1,0.9c-0.1,0.2-0.2,0.4-0.4,0.6c-0.2,0.2-0.4,0.3-0.6,0.4c-0.2,0.1-0.5,0.1-0.8,0.1c-0.3,0-0.5,0-0.7-0.1
		c-0.5-0.2-0.8-0.5-1-1c-0.1-0.3-0.2-0.5-0.2-0.9c0-0.3,0.1-0.6,0.2-0.9c0.1-0.2,0.2-0.4,0.4-0.6c0.2-0.2,0.4-0.3,0.6-0.4
		c0.2-0.1,0.5-0.1,0.7-0.1c0.3,0,0.5,0,0.7,0.1c0.5,0.2,0.8,0.5,1,1C-289.8,305.7-289.7,306-289.7,306.3z M-286,304.8l0.1,0.5
		c0.1,0.2,0.1,0.4,0.2,0.6c0.1,0.2,0.1,0.4,0.2,0.6c0.1,0.2,0.1,0.4,0.2,0.6c0.1-0.4,0.2-0.9,0.3-1.3c0.1-0.5,0.2-0.9,0.3-1.4h0.9
		c-0.1,0.7-0.3,1.3-0.4,2c-0.2,0.6-0.3,1.3-0.5,1.9h-0.8c-0.1-0.4-0.3-0.7-0.4-1.1c-0.1-0.4-0.2-0.8-0.4-1.2l-0.4,1.2
		c-0.1,0.4-0.2,0.8-0.4,1.1h-0.8c-0.2-0.6-0.4-1.2-0.5-1.9c-0.2-0.6-0.3-1.3-0.4-2h0.9c0.1,0.7,0.3,1.4,0.4,2.1
		c0,0.2,0.1,0.4,0.2,0.6c0.1-0.2,0.1-0.4,0.2-0.6c0.1-0.2,0.1-0.4,0.2-0.6c0.1-0.2,0.1-0.4,0.2-0.6c0.1-0.2,0.1-0.4,0.1-0.5
		C-286.7,304.8-286,304.8-286,304.8z M-282.8,308.2v-3.8h2.6v0.7h-1.7v0.8h1.5v0.7h-1.5v0.9h1.9v0.7
		C-280.1,308.2-282.8,308.2-282.8,308.2z M-277.8,304.3c0.6,0,1,0.1,1.3,0.3c0.3,0.2,0.5,0.5,0.5,1c0,0.3-0.1,0.5-0.2,0.7
		c-0.1,0.2-0.3,0.3-0.5,0.4c0.1,0.1,0.2,0.2,0.2,0.3c0.3,0.4,0.5,0.8,0.7,1.2h-1c-0.1-0.1-0.1-0.3-0.2-0.4c-0.1-0.2-0.3-0.5-0.4-0.7
		c-0.1-0.1-0.1-0.2-0.2-0.3h-0.4v1.4h-0.9v-3.8c0.2,0,0.4-0.1,0.6-0.1C-278.2,304.3-278,304.3-277.8,304.3z M-277.8,305.1
		c-0.1,0-0.1,0-0.2,0c0,0-0.1,0-0.1,0v1h0.2c0.3,0,0.6,0,0.7-0.1c0.1-0.1,0.2-0.2,0.2-0.4c0-0.2-0.1-0.3-0.2-0.4
		C-277.3,305.1-277.5,305.1-277.8,305.1L-277.8,305.1z M-274.7,308.2v-3.8h2.6v0.7h-1.7v0.8h1.5v0.7h-1.5v0.9h1.9v0.7L-274.7,308.2
		L-274.7,308.2z M-270,307.5c0.1,0,0.2,0,0.3,0c0.4,0,0.8-0.1,1-0.3c0.2-0.2,0.3-0.5,0.3-0.9c0-0.4-0.1-0.7-0.3-0.9
		c-0.2-0.2-0.5-0.3-0.9-0.3c-0.1,0-0.1,0-0.2,0c-0.1,0-0.1,0-0.2,0V307.5z M-267.5,306.3c0,0.3-0.1,0.6-0.2,0.9
		c-0.1,0.2-0.2,0.4-0.4,0.6c-0.2,0.2-0.4,0.3-0.7,0.4c-0.3,0.1-0.6,0.1-0.9,0.1c-0.2,0-0.3,0-0.5,0c-0.2,0-0.4,0-0.6-0.1v-3.7
		c0.2,0,0.4-0.1,0.6-0.1c0.2,0,0.4,0,0.6,0c0.3,0,0.6,0,0.9,0.1c0.3,0.1,0.5,0.2,0.7,0.4c0.2,0.2,0.3,0.4,0.4,0.6
		C-267.5,305.6-267.5,305.9-267.5,306.3L-267.5,306.3z M-263.2,308.3c-0.2,0-0.4,0-0.6,0c-0.2,0-0.4,0-0.7-0.1v-3.7
		c0.2,0,0.4-0.1,0.6-0.1c0.2,0,0.4,0,0.6,0c0.2,0,0.5,0,0.7,0.1c0.2,0,0.4,0.1,0.5,0.2c0.1,0.1,0.3,0.2,0.3,0.3
		c0.1,0.2,0.1,0.3,0.1,0.5c0,0.3-0.1,0.5-0.4,0.7c0.2,0.1,0.4,0.2,0.5,0.4c0.1,0.2,0.1,0.3,0.1,0.5c0,0.4-0.1,0.7-0.4,0.9
		S-262.6,308.3-263.2,308.3L-263.2,308.3z M-263.6,306.5v1c0.1,0,0.3,0,0.4,0c0.3,0,0.5,0,0.6-0.1c0.2-0.1,0.2-0.2,0.2-0.4
		c0-0.2-0.1-0.3-0.2-0.4c-0.1-0.1-0.3-0.1-0.6-0.1C-263,306.5-263.6,306.5-263.6,306.5z M-263.6,305.9h0.4c0.3,0,0.5,0,0.6-0.1
		c0.1-0.1,0.2-0.2,0.2-0.3c0-0.2-0.1-0.3-0.2-0.3c-0.1-0.1-0.3-0.1-0.5-0.1l-0.2,0c-0.1,0-0.2,0-0.2,0
		C-263.6,305-263.6,305.9-263.6,305.9z M-259,305.9c0.2-0.3,0.3-0.5,0.4-0.8c0.1-0.3,0.3-0.5,0.4-0.8h1c-0.2,0.4-0.4,0.8-0.7,1.2
		c-0.2,0.4-0.5,0.8-0.7,1.2v1.5h-0.9v-1.5c-0.2-0.4-0.5-0.8-0.7-1.2c-0.2-0.4-0.4-0.8-0.7-1.2h1c0.1,0.3,0.2,0.5,0.4,0.8
		C-259.3,305.4-259.1,305.7-259,305.9z M-252.1,304.4h0.9v3.8h-0.9v-1.6h-1.5v1.6h-0.9v-3.8h0.9v1.5h1.5L-252.1,304.4L-252.1,304.4z
		 M-249.1,306.3c0,0.2,0,0.4,0.1,0.5c0,0.1,0.1,0.3,0.2,0.4c0.1,0.1,0.2,0.2,0.3,0.3c0.1,0.1,0.3,0.1,0.4,0.1c0.2,0,0.3,0,0.4-0.1
		c0.1-0.1,0.2-0.1,0.3-0.3c0.1-0.1,0.2-0.2,0.2-0.4c0-0.2,0.1-0.3,0.1-0.5c0-0.2,0-0.4-0.1-0.5c0-0.1-0.1-0.3-0.2-0.4
		c-0.1-0.1-0.2-0.2-0.3-0.3c-0.1-0.1-0.3-0.1-0.4-0.1c-0.3,0-0.6,0.1-0.8,0.3c-0.1,0.1-0.2,0.2-0.2,0.4
		C-249.1,305.9-249.1,306.1-249.1,306.3C-249.1,306.3-249.1,306.3-249.1,306.3z M-246.1,306.3c0,0.3,0,0.6-0.1,0.9
		c-0.1,0.2-0.2,0.4-0.4,0.6c-0.2,0.2-0.4,0.3-0.6,0.4c-0.2,0.1-0.5,0.1-0.8,0.1c-0.3,0-0.5,0-0.7-0.1c-0.5-0.2-0.8-0.5-1-1
		c-0.1-0.3-0.2-0.5-0.2-0.9c0-0.3,0.1-0.6,0.2-0.9c0.1-0.3,0.2-0.5,0.4-0.6c0.2-0.2,0.4-0.3,0.6-0.4c0.2-0.1,0.5-0.1,0.7-0.1
		c0.3,0,0.5,0,0.7,0.1c0.2,0.1,0.4,0.2,0.6,0.4c0.2,0.2,0.3,0.4,0.4,0.6S-246.1,306-246.1,306.3z M-243.9,307.5c0.1,0,0.2,0,0.3,0
		c0.1,0,0.1,0,0.2-0.1c0,0,0.1-0.1,0.1-0.1c0-0.1,0-0.1,0-0.2c0-0.1-0.1-0.2-0.2-0.3c-0.1-0.1-0.3-0.2-0.6-0.3
		c-0.1,0-0.3-0.1-0.4-0.2c-0.1-0.1-0.2-0.1-0.3-0.2c-0.1-0.1-0.2-0.2-0.2-0.3c-0.1-0.1-0.1-0.3-0.1-0.5c0-0.2,0-0.3,0.1-0.5
		c0.1-0.1,0.2-0.3,0.3-0.4c0.1-0.1,0.3-0.2,0.4-0.2c0.2-0.1,0.4-0.1,0.6-0.1c0.4,0,0.8,0.1,1.1,0.3l-0.3,0.7
		c-0.1-0.1-0.2-0.1-0.4-0.1c-0.2,0-0.3-0.1-0.5-0.1c-0.2,0-0.4,0-0.4,0.1c-0.1,0.1-0.1,0.1-0.1,0.3c0,0.1,0,0.1,0,0.2
		c0,0.1,0.1,0.1,0.1,0.1c0.1,0,0.1,0.1,0.2,0.1c0.1,0,0.2,0.1,0.3,0.1c0.2,0.1,0.4,0.1,0.5,0.2c0.1,0.1,0.3,0.2,0.4,0.3
		c0.1,0.1,0.2,0.2,0.2,0.3c0,0.1,0.1,0.3,0.1,0.5c0,0.4-0.1,0.6-0.4,0.8c-0.3,0.2-0.6,0.3-1.1,0.3c-0.3,0-0.6,0-0.8-0.1
		c-0.2,0-0.3-0.1-0.5-0.2l0.2-0.7c0.1,0.1,0.3,0.1,0.4,0.2C-244.3,307.5-244.1,307.5-243.9,307.5L-243.9,307.5z M-238.4,304.4v0.7
		h-1.2v3.1h-0.9v-3.1h-1.2v-0.7L-238.4,304.4L-238.4,304.4z M-237.4,304.4h0.9v3.8h-0.9V304.4z M-232.5,308.2
		c-0.3-0.4-0.5-0.9-0.8-1.3c-0.3-0.4-0.6-0.8-0.9-1.2v2.5h-0.9v-3.8h0.7c0.1,0.1,0.3,0.3,0.4,0.4c0.3,0.4,0.6,0.8,0.9,1.2
		c0.2,0.2,0.3,0.4,0.4,0.6v-2.3h0.9v3.8H-232.5L-232.5,308.2z M-228.5,305c-0.4,0-0.7,0.1-0.9,0.3c-0.2,0.2-0.3,0.5-0.3,0.9
		c0,0.2,0,0.4,0.1,0.5c0,0.2,0.1,0.3,0.2,0.4c0.1,0.1,0.2,0.2,0.3,0.3c0.1,0.1,0.3,0.1,0.5,0.1c0.1,0,0.2,0,0.2,0c0.1,0,0.1,0,0.2,0
		v-1.3h0.9v1.9c-0.1,0-0.3,0.1-0.5,0.1c-0.2,0-0.5,0.1-0.8,0.1c-0.3,0-0.5,0-0.8-0.1c-0.2-0.1-0.4-0.2-0.6-0.4
		c-0.2-0.2-0.3-0.4-0.4-0.6c-0.1-0.3-0.1-0.6-0.1-0.8c0-0.3,0.1-0.6,0.2-0.9c0.1-0.2,0.2-0.4,0.4-0.6c0.2-0.2,0.4-0.3,0.6-0.4
		c0.2-0.1,0.5-0.1,0.8-0.1c0.3,0,0.6,0,0.9,0.1c0.1,0,0.3,0.1,0.4,0.2l-0.3,0.7c-0.1-0.1-0.3-0.1-0.4-0.2
		C-228.2,305.1-228.4,305-228.5,305z M-226,308.2v-3.8h2.6v0.7h-1.7v0.8h1.5v0.7h-1.5v0.9h1.9v0.7L-226,308.2L-226,308.2z
		 M-221,304.3c0.6,0,1,0.1,1.3,0.3c0.3,0.2,0.5,0.5,0.5,1c0,0.3-0.1,0.5-0.2,0.7c-0.1,0.2-0.3,0.3-0.5,0.4c0.1,0.1,0.2,0.2,0.2,0.3
		c0.3,0.4,0.5,0.8,0.7,1.2h-1l-0.2-0.4c-0.1-0.2-0.3-0.5-0.4-0.7c-0.1-0.1-0.1-0.2-0.2-0.3h-0.4v1.4h-0.9v-3.8
		c0.2,0,0.4-0.1,0.6-0.1C-221.4,304.3-221.2,304.3-221,304.3z M-221,305.1c-0.1,0-0.1,0-0.2,0l-0.1,0v1h0.2c0.3,0,0.6,0,0.7-0.1
		s0.2-0.2,0.2-0.4c0-0.2-0.1-0.3-0.2-0.4C-220.5,305.1-220.7,305.1-221,305.1L-221,305.1z"/>
	<path class="st1" d="M-337.2,293.7c-2,18.8,14.9,21.7,19.7,16.3C-326,330.9-345.8,307.2-337.2,293.7z M-340.4,291.3
		c-7.3,1-18.2,24.3-5.3,21.7C-353.7,310.1-345.7,293.7-340.4,291.3L-340.4,291.3z M-340.4,288.4c-2.5-1.2-11.9,2.4-12.6,9.5
		C-351.3,294.1-346.7,288.9-340.4,288.4z M-337.2,285.7c-3.9-3-8.6,0.5-10,1.3C-343.3,282.4-337.5,283.2-337.2,285.7L-337.2,285.7z
		 M-333.5,284.8c2.7-2.5-1.4-7.1-5.3-3.4C-337.4,280.8-332.7,280-333.5,284.8L-333.5,284.8z M-329.1,285.5c5.1-4.9,0.9-6.8-0.5-6.9
		C-322.4,276.7-325.6,284.6-329.1,285.5L-329.1,285.5z M-328.2,288.5c5.4,2.1,21.3-6.8,8.6-8.6
		C-316.7,280.6-316.1,286.5-328.2,288.5L-328.2,288.5L-328.2,288.5z M-332,292.9c3.6,10.3,35.3,9.3,21.6-4.6
		C-307.4,293.1-314.8,301.6-332,292.9z"/>
</g>
</svg>
